<svg xmlns="http://www.w3.org/2000/svg"  viewBox="0 0 40 40" width="40px" height="40px"><path fill="#98ccfd" d="M19.5,6.5c-7.72,0-14,6.28-14,14s6.28,14,14,14s14-6.28,14-14v-7h-1.871l-0.146-0.241 C28.92,9.026,24.44,6.5,19.5,6.5z"/><path fill="#4788c7" d="M19.5,7c4.764,0,9.084,2.437,11.556,6.518L31.347,14h0.563H33v6.5C33,27.944,26.944,34,19.5,34 S6,27.944,6,20.5S12.056,7,19.5,7 M19.5,6C11.492,6,5,12.492,5,20.5S11.492,35,19.5,35S34,28.508,34,20.5c0-1.162,0-7.5,0-7.5 h-2.089C29.37,8.805,24.763,6,19.5,6L19.5,6z"/><path fill="#fff" d="M1.782,27.074l0.572,0.572c0.439,0.439,0.87,0.653,1.181,0.756c0.083-1.167,0.349-3.9,1.112-6.422 c0.921-3.047,1.878-6.009,1.878-6.009l0.438-1.358l1.089,2.877c0.373,0.988,0.719,3.312,0.821,4.335 c0.058,0.579,0.201,1.18,0.34,1.761C9.367,24.232,9.5,24.79,9.5,25.249v1.375c0,0.249,0.13,0.57,0.251,0.81 c0.432-0.1,1.187-0.288,1.823-0.526c0.679-0.255,0.926-0.533,0.926-0.657c0-0.497,0.371-0.944,0.669-1.304 c0.086-0.104,0.215-0.259,0.242-0.315c0.051-0.13,0.088-0.637,0.088-1.006v-0.153l4.925-7.28L17.35,19.53 c-0.237,0.735-0.851,2.838-0.851,3.721c0,0.834,0,0.834,0.307,1.192l0.202,0.238c0.442,0.531,1.097,0.8,2.002,0.82 c0.494,0.025,1.051-0.104,1.688-0.343c0.091-0.034,0.207-0.093,0.338-0.157c0.398-0.195,0.933-0.458,1.462-0.495l0.016-9.629 c1.712-6.686,1.889-6.862,2.005-6.979c0.113-0.112,0.193-0.654,0.285-1.281c0.083-0.558,0.189-1.28,0.377-2.214 c0.245-1.216,0.308-1.982,0.317-2.412c0.003-0.134,0.001-0.242-0.003-0.331c-0.175,0.116-0.372,0.274-0.493,0.371 c-0.294,0.234-0.509,0.406-0.735,0.456C24.162,2.61,23.966,2.93,23.824,3.22l-0.603,1.229l-0.292-1.17l-1.179,1.18v-1.15 c-0.345,0.616-0.706,1.429-0.744,2.177c-0.06,1.172-0.745,1.852-1.198,2.302c-0.152,0.151-0.382,0.38-0.392,0.464 c0,1.242-0.256,1.737-1.211,3.576c-0.272,0.523-0.604,1.164-1.008,1.972c-1.794,3.583-3.724,6.034-3.805,6.137l-0.712,0.898 l-0.174-1.133c-0.113-0.732-0.309-1.621-0.517-2.562c-0.248-1.12-0.528-2.39-0.732-3.687c-0.385-2.44-0.637-6.984-0.723-8.73 L9.491,5.135L9.5,4.39c0.012-0.987-0.052-2.153-0.169-2.708C9.295,1.708,9.259,1.735,9.227,1.761C8.816,2.072,8.254,2.5,7.625,2.5 C7.569,2.5,7.529,2.504,7.5,2.51v1.517L6.584,2.652C6.565,2.626,6.534,2.593,6.5,2.564V5.5c0,1.149-0.518,1.685-1,1.891V8 c0,1.437-2.267,8.37-2.525,9.156l-0.377,1.148l-0.544-1.08c-0.129-0.257-0.332-0.533-0.474-0.66C1.5,16.895,1.5,17.675,1.5,18.375 v2.375L0.5,20v7.194c0,0.209,0.478,0.545,0.958,0.752c0.028-0.027,0.054-0.062,0.068-0.104L1.782,27.074z M24.082,2.498 L24.082,2.498C24.083,2.498,24.083,2.498,24.082,2.498z"/><path fill="#4788c7" d="M8.941,2.575C8.984,3.098,9.008,3.756,9,4.383l-0.018,1.49l1.087-0.43 c0.11,2.065,0.348,5.904,0.693,8.088c0.207,1.312,0.489,2.589,0.739,3.717c0.206,0.933,0.401,1.813,0.511,2.53l0.349,2.266 l1.424-1.797c0.083-0.104,2.043-2.594,3.86-6.223c0.404-0.806,0.735-1.445,1.006-1.967c0.913-1.759,1.242-2.394,1.265-3.66 c0.061-0.071,0.165-0.173,0.246-0.254c0.477-0.474,1.275-1.266,1.344-2.631c0.002-0.036,0.005-0.073,0.008-0.111l1.144-1.144 l0.41,1.637l1.205-2.452c0.09-0.184,0.212-0.395,0.3-0.526c0.129-0.052,0.252-0.125,0.376-0.212 c-0.044,0.406-0.122,0.932-0.256,1.601C24.502,5.253,24.392,6,24.311,6.545c-0.065,0.438-0.131,0.891-0.19,1.048 c-0.21,0.233-0.465,0.815-2.09,7.161L22,14.874V15v9.08c-0.447,0.11-0.857,0.311-1.183,0.471c-0.114,0.056-0.214,0.108-0.293,0.137 C19.979,24.892,19.481,25,19.082,25h-0.06c-0.762-0.017-1.279-0.22-1.629-0.64l-0.207-0.244c-0.066-0.076-0.138-0.161-0.174-0.209 C17,23.799,17,23.531,17,23.249c0-0.727,0.507-2.574,0.827-3.568l2.145-6.669l-3.925,5.803l-2.875,4.25L13,23.319v0.306 c0,0.268-0.024,0.659-0.05,0.799c-0.044,0.061-0.104,0.128-0.166,0.203c-0.31,0.373-0.726,0.875-0.779,1.492 c-0.077,0.067-0.262,0.19-0.607,0.319c-0.443,0.166-0.95,0.308-1.353,0.41C10.017,26.762,10,26.683,10,26.624v-1.375 c0-0.518-0.14-1.103-0.301-1.78c-0.135-0.565-0.274-1.148-0.329-1.694c-0.094-0.941-0.439-3.372-0.851-4.462l-0.583-1.542 l-1.01-2.67l-0.877,2.717c-0.01,0.03-0.969,3.002-1.881,6.018c-0.642,2.124-0.938,4.394-1.07,5.788 c-0.126-0.088-0.257-0.196-0.391-0.33l-1.144-1.145l-0.365,1.094C1.114,27.188,1.044,27.134,1,27.087V21l1,0.75v-2v-1.375 c0-0.046,0-0.092,0-0.139l0.691,1.383l0.759-2.307C3.876,16.017,6,9.483,6,8V7.683C6.541,7.325,7,6.637,7,5.5V4.443l1,1.818V2.964 C8.349,2.898,8.663,2.747,8.941,2.575 M25.798,1.009C25.256,1.009,24.394,2,24.133,2c-0.003,0-0.006,0-0.008,0 c-0.003,0-0.005,0-0.008,0c-0.253,0-0.742,1-0.742,1l-0.25-1c0,0-0.125,0.5-0.375,0.75c-0.221,0.221-0.5,0.5-0.5,0.5 C22.25,2.375,22,2,22,2s-1.41,1.824-1.493,3.46s-1.59,2.089-1.59,2.79c0,1.45-0.375,1.748-2.167,5.325 c-1.792,3.578-3.75,6.05-3.75,6.05c-0.25-1.625-0.875-3.875-1.25-6.25C11.276,10.371,11,4,11,4l-1,0.395 c0,0,0.041-3.375-0.495-3.375c-0.002,0-0.003,0-0.005,0C9.161,1.034,8.385,2,7.625,2C7,2,7,2.375,7,2.375S6.75,2,6.375,2 S6,2.125,6,2.5s0,1.25,0,3C6,7,5,7,5,7s0,0.375,0,1c0,1.398-2.5,9-2.5,9s-0.5-1-1-1S1,16.875,1,18.375v1.375L0,19v8.194 C0,27.979,1.5,28.5,1.5,28.5S1.875,28.375,2,28c1,1,2,1,2,1s0.15-3.651,1.125-6.875c0.92-3.042,1.875-6,1.875-6s0,0,0.583,1.542 c0.339,0.896,0.683,3.122,0.792,4.208C8.5,23.125,9,24.464,9,25.249c0,1.125,0,0.75,0,1.375S9.499,28,9.499,28 s1.251-0.25,2.251-0.625c0.667-0.25,1.25-0.63,1.25-1.125c0-0.5,0.751-1.115,0.875-1.432C14,24.5,14,23.625,14,23.625l2.875-4.25 c0,0-0.875,2.718-0.875,3.874s0,1,0.625,1.751c0.684,0.822,1.645,0.984,2.375,1c0.024,0.001,0.051,0.001,0.082,0.001 c0.289,0,0.89-0.037,1.793-0.376C21.251,25.484,22,25,22.624,25C22.972,25,23,25,23,25V15c0,0,1.678-6.553,1.875-6.75 c0.375-0.375,0.319-1.372,0.798-3.75C25.895,3.402,25.987,2.573,26,2C26.015,1.332,25.922,1.009,25.798,1.009L25.798,1.009z"/><g><path fill="#98ccfd" d="M39.5,34c0,0.28-0.22,0.5-0.5,0.5h-2.21l-1,1H31c-0.71,0-1.08,0.37-1.35,0.65 C29.4,36.39,29.28,36.5,29,36.5H19c-0.28,0-0.5-0.22-0.5-0.5v-1.12c0-0.13,0.37-0.41,0.72-0.54l0.16-0.06l0.56-0.91 c0.21-0.38,0.65-0.94,0.94-1.01c0.75-0.2,1.38-0.68,2.07-1.36c0.01-0.01,0.01-0.01,0.02-0.02c0.47-0.45,1.33-0.94,2.16-1.42 c0.27-0.16,0.54-0.31,0.79-0.46c0.2-0.12,0.4-0.15,0.63-0.19c0.36-0.06,0.81-0.13,1.13-0.55c0.08-0.07,0.44-0.14,0.63-0.18 c0.31-0.06,0.6-0.12,0.82-0.25c0.23-0.14,0.35-0.38,0.47-0.67c0.07-0.14,0.14-0.3,0.23-0.44c0.12-0.17,0.82-0.97,1.29-1.48 l0.76-0.84H31l0.38-0.5L34,20.5h-1.09c0.29-0.61,0.59-1.55,0.59-2.88c0-0.19-0.02-0.96-0.25-1.62c-0.08-0.27-0.21-0.52-0.38-0.71 c-1.05-1.19-1.88-1.79-3.49-1.79c-1.35,0-1.92,0.53-2.29,0.89c-0.2,0.18-0.26,0.23-0.34,0.23c-0.19,0-0.77,0-2.17,2.1l-0.51,0.78 h0.92l-1.19,1.55l0.54,1.28l0.17,0.05c0.01,0.59,0.06,1.73,0.26,2.49c0.06,0.27,0.23,0.58,0.4,0.84l-0.72,0.2l-1.54,0.59H21.5 c0-0.57-0.32-0.92-0.55-1.17c-0.19-0.21-0.3-0.33-0.33-0.54c-0.08-0.49-0.41-0.92-0.7-1.31c-0.16-0.21-0.42-0.56-0.42-0.69 l-0.01-0.85c0.07-0.24,0.73-1.24,1.12-1.84c0.77-1.16,0.89-1.36,0.89-1.6v-0.83c0.31-0.38,1.36-1.57,3.13-2.61 c2.63-1.56,4.9-1.56,5.87-1.56c0.31,0,0.43,0.05,0.58,0.11c0.15,0.06,0.35,0.14,0.67,0.14c0.31,0,0.64-0.07,0.95-0.14 c0.25-0.05,0.5-0.11,0.68-0.11c0.79,0,1.96,0.66,2.34,0.92l0.48,0.31l0.15-0.3c0.38,0.23,0.96,0.66,1.42,1.36 c0.41,0.63,0.73,1.47,0.73,2.59c0,2.09-0.36,3.86-2.15,6.44c-0.15,0.22-0.32,0.45-0.5,0.69c-0.15,0.21-0.35,0.52-0.57,0.86 c-0.31,0.47-0.65,1-0.91,1.31c-1.49,1.76-3.01,3.27-4.14,4.32c-1.07,1-1.79,1.6-1.8,1.61l-1.07,0.89h4.92l0.15-0.24 c0.28-0.47,0.64-0.76,1.57-0.76s1.29,0.29,1.57,0.76l0.15,0.24H38C38.83,32.5,39.5,33.17,39.5,34z"/><path fill="#b6dcfe" d="M38.5,16.38c0,2.09-0.36,3.86-2.15,6.44c-0.15,0.22-0.32,0.45-0.5,0.69 c-0.15,0.21-0.35,0.52-0.57,0.86c-0.31,0.47-0.65,1-0.91,1.31c-1.49,1.76-3.01,3.27-4.14,4.32h-0.61l-6,1h-0.67 c0.01-0.01,0.01-0.01,0.02-0.02c0.47-0.45,1.33-0.94,2.16-1.42c0.27-0.16,0.54-0.31,0.79-0.46c0.2-0.12,0.4-0.15,0.63-0.19 c0.36-0.06,0.81-0.13,1.13-0.55c0.08-0.07,0.44-0.14,0.63-0.18c0.31-0.06,0.6-0.12,0.82-0.25c0.23-0.14,0.35-0.38,0.47-0.67 c0.07-0.14,0.14-0.3,0.23-0.44c0.12-0.17,0.82-0.97,1.29-1.48l0.76-0.84H31l0.38-0.5L34,20.5h-1.09c0.29-0.61,0.59-1.55,0.59-2.88 c0-0.19-0.02-0.96-0.25-1.62c-0.08-0.27-0.21-0.52-0.38-0.71c-1.05-1.19-1.88-1.79-3.49-1.79c-1.35,0-1.92,0.53-2.29,0.89 c-0.2,0.18-0.26,0.23-0.34,0.23c-0.19,0-0.77,0-2.17,2.1l-0.51,0.78h0.92l-1.19,1.55l0.54,1.28l0.17,0.05 c0.01,0.59,0.06,1.73,0.26,2.49c0.06,0.27,0.23,0.58,0.4,0.84l-0.72,0.2l-1.54,0.59H21.5c0-0.57-0.32-0.92-0.55-1.17 c-0.19-0.21-0.3-0.33-0.33-0.54c-0.08-0.49-0.41-0.92-0.7-1.31c-0.16-0.21-0.42-0.56-0.42-0.69l-0.01-0.85 c0.07-0.24,0.73-1.24,1.12-1.84c0.77-1.16,0.89-1.36,0.89-1.6v-0.83c0.31-0.38,1.36-1.57,3.13-2.61c2.63-1.56,4.9-1.56,5.87-1.56 c0.31,0,0.43,0.05,0.58,0.11c0.15,0.06,0.35,0.14,0.67,0.14c0.31,0,0.64-0.07,0.95-0.14c0.25-0.05,0.5-0.11,0.68-0.11 c0.79,0,1.96,0.66,2.34,0.92l0.48,0.31l0.15-0.3c0.38,0.23,0.96,0.66,1.42,1.36C38.18,14.42,38.5,15.26,38.5,16.38z"/><path fill="#dff0fe" d="M38.5,16.38c0,2.09-0.36,3.86-2.15,6.44L32,24h-0.62L34,20.5h-1.09c0.29-0.61,0.59-1.55,0.59-2.88 c0-0.19-0.02-0.96-0.25-1.62c-0.08-0.27-0.21-0.52-0.38-0.71c-1.05-1.19-1.88-1.79-3.49-1.79c-1.35,0-1.92,0.53-2.29,0.89 c-0.2,0.18-0.26,0.23-0.34,0.23c-0.19,0-0.77,0-2.17,2.1l-0.51,0.78h0.92l-1.19,1.55l0.54,1.28l0.17,0.05 c0.01,0.59,0.06,1.73,0.26,2.49c0.06,0.27,0.23,0.58,0.4,0.84l-0.72,0.2l-1.54,0.59H21.5c0-0.57-0.32-0.92-0.55-1.17 c-0.19-0.21-0.3-0.33-0.33-0.54c-0.08-0.49-0.41-0.92-0.7-1.31c-0.16-0.21-0.42-0.56-0.42-0.69l-0.01-0.85 c0.07-0.24,0.73-1.24,1.12-1.84c0.77-1.16,0.89-1.36,0.89-1.6v-0.83c0.31-0.38,1.36-1.57,3.13-2.61c2.63-1.56,4.9-1.56,5.87-1.56 c0.31,0,0.43,0.05,0.58,0.11c0.15,0.06,0.35,0.14,0.67,0.14c0.31,0,0.64-0.07,0.95-0.14c0.25-0.05,0.5-0.11,0.68-0.11 c0.79,0,1.96,0.66,2.34,0.92l0.48,0.31l0.15-0.3c0.38,0.23,0.96,0.66,1.42,1.36C38.18,14.42,38.5,15.26,38.5,16.38z"/><path fill="#fff" d="M37.77,13.79L33.62,16c0,0-0.17,0-0.37,0c-0.08-0.27-0.21-0.52-0.38-0.71 c-1.05-1.19-1.88-1.79-3.49-1.79c-1.35,0-1.92,0.53-2.29,0.89c-0.2,0.18-0.26,0.23-0.34,0.23c-0.19,0-0.77,0-2.17,2.1l-0.51,0.78 h0.92l-1.19,1.55l0.54,1.28l0.17,0.05c0.01,0.59,0.06,1.73,0.26,2.49c0.06,0.27,0.23,0.58,0.4,0.84l-0.72,0.2l-1.54,0.59H21.5 c0-0.57-0.32-0.92-0.55-1.17c-0.19-0.21-0.3-0.33-0.33-0.54c-0.08-0.49-0.41-0.92-0.7-1.31c-0.16-0.21-0.42-0.56-0.42-0.69 l-0.01-0.85c0.07-0.24,0.73-1.24,1.12-1.84c0.77-1.16,0.89-1.36,0.89-1.6v-0.83c0.31-0.38,1.36-1.57,3.13-2.61 c2.63-1.56,4.9-1.56,5.87-1.56c0.31,0,0.43,0.05,0.58,0.11c0.15,0.06,0.35,0.14,0.67,0.14c0.31,0,0.64-0.07,0.95-0.14 c0.25-0.05,0.5-0.11,0.68-0.11c0.79,0,1.96,0.66,2.34,0.92l0.48,0.31l0.15-0.3C36.73,12.66,37.31,13.09,37.77,13.79z"/><path fill="#4788c7" d="M33.375,12c0.562,0,1.55,0.487,2.071,0.832l0.944,0.629l0.147-0.296 C37.184,13.69,38,14.685,38,16.375c0,2.226-0.406,3.975-2.55,6.84c-0.168,0.224-0.374,0.543-0.592,0.881 c-0.296,0.458-0.631,0.976-0.87,1.257c-2.869,3.381-5.845,5.851-5.874,5.876L25.969,33h2.781H32h0.566l0.291-0.485 C33.009,32.261,33.166,32,34,32s0.991,0.262,1.143,0.514L35.434,33H36h2c0.551,0,1,0.449,1,1h-2h-0.414l-0.293,0.293L35.586,35H31 c-0.914,0-1.411,0.496-1.707,0.793C29.086,36,29.076,36,29,36H19v-0.97c0.091-0.073,0.257-0.167,0.388-0.217l0.326-0.12 l0.181-0.296l0.478-0.784c0.162-0.29,0.493-0.705,0.627-0.769c0.925-0.239,1.662-0.862,2.321-1.5 c0.419-0.406,1.25-0.885,2.053-1.348c0.274-0.158,0.547-0.316,0.807-0.471c0.105-0.063,0.232-0.085,0.449-0.119 c0.373-0.059,0.923-0.146,1.362-0.641c0.106-0.033,0.292-0.069,0.413-0.093c0.337-0.066,0.685-0.135,0.983-0.312 c0.367-0.219,0.528-0.575,0.671-0.888c0.062-0.136,0.125-0.276,0.188-0.37c0.11-0.156,0.731-0.863,1.244-1.427L33.009,24H32 l1.8-2.4L35,20h-1.35c0.199-0.612,0.35-1.398,0.35-2.376c0-0.426-0.054-1.878-0.753-2.664c-1.13-1.271-2.082-1.96-3.872-1.96 c-1.547,0-2.223,0.641-2.627,1.024c-0.038,0.036-0.073,0.072-0.108,0.103c-0.371,0.02-1.077,0.225-2.472,2.318L23.131,18h0.845 l-0.396,0.518l-0.352,0.461l0.225,0.535l0.333,0.792l0.186,0.442l0.045,0.013c0.027,0.643,0.094,1.559,0.262,2.233 c0.033,0.132,0.083,0.267,0.143,0.401l-0.061,0.017l-0.049,0.013l-0.047,0.018L22.814,24h-0.879 c-0.129-0.477-0.421-0.796-0.614-1.006c-0.152-0.165-0.2-0.226-0.21-0.283c-0.101-0.608-0.468-1.099-0.791-1.531 c-0.108-0.144-0.265-0.355-0.32-0.463v-0.694c0.16-0.329,0.718-1.173,1.029-1.644C21.846,17.142,22,16.896,22,16.5v-0.646 c0.388-0.45,1.357-1.466,2.884-2.368C27.398,12,29.571,12,30.499,12c0.217,0,0.27,0.022,0.388,0.07 c0.176,0.072,0.442,0.18,0.863,0.18c0.363,0,0.733-0.081,1.06-0.152C33.01,12.054,33.258,12,33.375,12 M33.375,11 c-0.459,0-1.125,0.25-1.625,0.25S31.25,11,30.499,11c-1,0-3.374,0-6.124,1.625C22.126,13.954,21,15.499,21,15.499s0,0.751,0,1.001 s-2,2.953-2,3.375c0,0.75,0,0.334,0,0.917s1.002,1.344,1.125,2.083C20.25,23.625,21,23.776,21,24.5V25h2l1.625-0.625L26,24 c0,0-0.625-0.75-0.75-1.25C25,21.75,25,20,25,20l-0.292-0.083l-0.333-0.792L26,17h-1c0,0,1.25-1.875,1.75-1.875 c0.75,0,0.75-1.125,2.625-1.125c1.424,0,2.125,0.5,3.125,1.625c0.363,0.408,0.5,1.351,0.5,1.999C33,19.999,32,21,32,21h1l-3,4h0.75 c0,0-1.148,1.264-1.333,1.542c-0.25,0.375-0.366,0.853-0.542,0.958c-0.359,0.215-1.327,0.2-1.583,0.542 c-0.375,0.5-1,0.25-1.625,0.625c-1.072,0.643-2.375,1.313-3.042,1.958c-0.667,0.646-1.229,1.083-1.875,1.25s-1.25,1.25-1.25,1.25 l-0.458,0.75c0,0-1.042,0.385-1.042,1V36c0,0.552,0.448,1,1,1h10c1,0,1-1,2-1c1.75,0,5,0,5,0l1-1h2c0.552,0,1-0.448,1-1 c0-1.105-0.895-2-2-2h-2c-0.375-0.625-0.895-1-2-1s-1.625,0.375-2,1h-3.25c0,0,3.034-2.504,6-6c0.468-0.552,1.133-1.696,1.5-2.186 c2.375-3.173,2.75-5.165,2.75-7.439c0-3.5-2.875-4.625-2.875-4.625L36.001,12C36.001,12,34.5,11,33.375,11L33.375,11z"/></g></svg>